<?xml version="1.0" encoding="UTF-8" standalone="no"?>
<!DOCTYPE svg PUBLIC "-//W3C//DTD SVG 1.1//EN" "http://www.w3.org/Graphics/SVG/1.1/DTD/svg11.dtd">
<svg width="100%" height="100%" viewBox="0 0 459 512" version="1.1" xmlns="http://www.w3.org/2000/svg" xmlns:xlink="http://www.w3.org/1999/xlink" xml:space="preserve" xmlns:serif="http://www.serif.com/" style="fill-rule:evenodd;clip-rule:evenodd;stroke-linejoin:round;stroke-miterlimit:2;">
    <g transform="matrix(1,0,0,1,-26.666667,-0)">
        <rect id="Super-Credit" serif:id="Super Credit" x="0" y="0" width="512" height="512" style="fill:none;"/>
        <clipPath id="_clip1">
            <rect id="Super-Credit1" serif:id="Super Credit" x="0" y="0" width="512" height="512"/>
        </clipPath>
        <g clip-path="url(#_clip1)">
            <g transform="matrix(1,0,0,0.875,0,0)">
                <rect x="26.667" y="0" width="458.667" height="512"/>
            </g>
            <g transform="matrix(6.615385,0,0,5.894737,-149.74359,-0)">
                <path d="M96,0L96,76L26.667,76L26.667,0L96,0ZM65.415,48.857L52.566,48.857L52.566,66.839L68.589,66.839L81.438,52.42L81.438,34.438L65.415,34.438L65.415,48.857ZM57.252,27.143L70.101,27.143L70.101,9.161L54.078,9.161L41.229,23.58L41.229,41.563L57.252,41.563L57.252,27.143ZM96,81.429L96,86.857L26.667,86.857L26.667,81.429L96,81.429Z" style="fill:rgb(112,245,255);"/>
            </g>
        </g>
    </g>
</svg>
